<?xml version="1.0" encoding="UTF-8"?>
<svg id="Warstwa_2" data-name="Warstwa 2" xmlns="http://www.w3.org/2000/svg" viewBox="0 0 952.47 257.8">
  <defs>
    <style>
      .cls-1 {
        fill: none;
        font-family: ComicSansMS-Bold, 'Comic Sans MS';
        font-size: 73px;
        font-weight: 700;
        stroke: #d1ceb5;
        stroke-linecap: round;
        stroke-linejoin: round;
        stroke-width: 2px;
      }
    </style>
  </defs>
  <g id="b">
    <text class="cls-1" transform="translate(51.57 62.23) rotate(43.13)"><tspan x="0" y="0">K</tspan></text>
    <text class="cls-1" transform="translate(91.56 99.13) rotate(39.31)"><tspan x="0" y="0">o</tspan></text>
    <text class="cls-1" transform="translate(129.11 129.48) rotate(35.42)"><tspan x="0" y="0">n</tspan></text>
    <text class="cls-1" transform="translate(168.87 157.57) rotate(30.45)"><tspan x="0" y="0">w</tspan></text>
    <text class="cls-1" transform="translate(221.82 187.84) rotate(24.48)"><tspan x="0" y="0">e</tspan></text>
    <text class="cls-1" transform="translate(269.34 208.74) rotate(18.47)"><tspan x="0" y="0">r</tspan></text>
    <text class="cls-1" transform="translate(313.5 222.85) rotate(12.07)"><tspan x="0" y="0">t</tspan></text>
    <text class="cls-1" transform="translate(359.04 232.04) rotate(4.42)"><tspan x="0" y="0">e</tspan></text>
    <text class="cls-1" transform="translate(411.73 234.87) rotate(-3.18)"><tspan x="0" y="0">r</tspan></text>
    <text class="cls-1" transform="translate(456.65 233.98) rotate(-4.55)"><tspan x="0" y="0"> </tspan></text>
    <text class="cls-1" transform="translate(498.75 230.04) rotate(-9.74)"><tspan x="0" y="0"> </tspan></text>
    <text class="cls-1" transform="translate(539.54 222.65) rotate(-13.53)"><tspan x="0" y="0"> </tspan></text>
    <text class="cls-1" transform="translate(579.42 212.82) rotate(-16.64)"><tspan x="0" y="0">c</tspan></text>
    <text class="cls-1" transform="translate(623.73 199.21) rotate(-18.8)"><tspan x="0" y="0">l</tspan></text>
    <text class="cls-1" transform="translate(650.64 189.93) rotate(-20.22)"><tspan x="0" y="0">i</tspan></text>
    <text class="cls-1" transform="translate(677.08 180.21) rotate(-21.83)"><tspan x="0" y="0">p</tspan></text>
    <text class="cls-1" transform="translate(720 162.91) rotate(-23.66)"><tspan x="0" y="0">-</tspan></text>
    <text class="cls-1" transform="translate(767.43 141.96) rotate(-25.25)"><tspan x="0" y="0">p</tspan></text>
    <text class="cls-1" transform="translate(809.37 122.09) rotate(-26.63)"><tspan x="0" y="0">a</tspan></text>
    <text class="cls-1" transform="translate(852.18 100.49) rotate(-27.86)"><tspan x="0" y="0">t</tspan></text>
    <text class="cls-1" transform="translate(889.12 80.93) rotate(-29.13)"><tspan x="0" y="0">h</tspan></text>
  </g>
</svg>