<?xml version="1.0" encoding="UTF-8"?>
<svg xmlns="http://www.w3.org/2000/svg" xmlns:xlink="http://www.w3.org/1999/xlink" viewBox="0 0 2170.32 1151.28">
  <defs>
    <style>
      .cls-1 {
        fill: #fff;
      }

      .cls-2 {
        isolation: isolate;
      }

      .cls-3 {
        fill: none;
        stroke: #f9f5d1;
        stroke-width: 3.45px;
      }

      .cls-4 {
        fill: url(#radial-gradient);
      }

      .cls-5 {
        mix-blend-mode: multiply;
      }
    </style>
    <radialGradient id="radial-gradient" cx="152.74" cy="339.09" fx="152.74" fy="339.09" r="980.64" gradientUnits="userSpaceOnUse">
      <stop offset="0" stop-color="#fff29b"/>
      <stop offset=".5" stop-color="#00a03d"/>
      <stop offset="1" stop-color="#115029"/>
    </radialGradient>
  </defs>
  <g class="cls-2">
    <g id="Warstwa_2" data-name="Warstwa 2">
      <g id="b">
        <g id="c">
          <g id="Intro2">
            <g>
              <image class="cls-5" width="9043" height="4797" transform="scale(.24)" xlink:href="Zasób 391.png"/>
              <path class="cls-1" d="m12.72,824.19V262.12c710.72,842.84,1421.43-849.77,2132.15-6.93,0,191.14,0,382.29,0,573.43-358.18-469.18-716.35-293.97-1074.53-123.45v251.23c-352.54,166.77-705.08,329-1057.62-132.21Z"/>
            </g>
            <path class="cls-3" d="m12.72,824.19V262.12c710.72,842.84,1421.43-849.77,2132.15-6.93,0,191.14,0,382.29,0,573.43-358.18-469.18-716.35-293.97-1074.53-123.45v251.23c-352.54,166.77-705.08,329-1057.62-132.21Z"/>
            <path class="cls-4" d="m12.72,824.19V262.12c710.72,842.84,1421.43-849.77,2132.15-6.93,0,191.14,0,382.29,0,573.43-358.18-469.18-716.35-293.97-1074.53-123.45v251.23c-352.54,166.77-705.08,329-1057.62-132.21Z"/>
          </g>
        </g>
      </g>
    </g>
  </g>
</svg>