<?xml version="1.0" encoding="UTF-8"?>
<svg id="Warstwa_2" data-name="Warstwa 2" xmlns="http://www.w3.org/2000/svg" viewBox="0 0 252.74 440.46">
  <defs>
    <style>
      .cls-1, .cls-2, .cls-3, .cls-4, .cls-5 {
        fill: none;
      }

      .cls-1, .cls-6, .cls-4, .cls-7, .cls-8, .cls-5 {
        stroke: #000;
      }

      .cls-1, .cls-6, .cls-8 {
        stroke-linejoin: round;
        stroke-width: 10px;
      }

      .cls-2 {
        stroke-width: 14.37px;
      }

      .cls-2, .cls-3 {
        stroke: #b3b3b3;
      }

      .cls-2, .cls-3, .cls-4, .cls-7, .cls-5 {
        stroke-miterlimit: 10;
      }

      .cls-6 {
        fill: #fff;
      }

      .cls-3 {
        stroke-width: 11px;
      }

      .cls-4, .cls-7 {
        stroke-width: 13px;
      }

      .cls-7, .cls-8 {
        fill: #e6e6e6;
      }

      .cls-5 {
        stroke-width: 12px;
      }

      .cls-9 {
        fill: #b3b3b3;
      }
    </style>
  </defs>
  <g id="Warstwa_1-2" data-name="Warstwa 1">
    <g>
      <polyline class="cls-8" points="182.66 360.6 202.61 389.95 134.23 435.46 52.62 410.39 66.05 376.49"/>
      <path class="cls-9" d="m135.95,395.2c3.51,7.3,11.64,22.26,14.56,29.54.05.41.34.79-.04,1.26-.4.47-1,.95-1.5,1.43l-1.58,1.44c-2.08,1.92-4.34,3.86-6.7,5.81l-12.91,1.55c-2.76-1.34-5.41-2.69-7.89-4.06-1.01-.61-2.75-1.43-3.67-2.06-.48-.36-.29-.8-.34-1.21.42-3.89,1.56-7.69,2.36-11.55,0,0,4.79-20.6,4.79-20.6l12.91-1.55h0Z"/>
      <polyline class="cls-1" points="182.66 360.6 202.61 389.95 134.23 435.46 52.62 410.39 66.05 376.49"/>
      <polygon class="cls-6" points="129.49 395.98 66.05 376.49 119.21 341.11 182.66 360.6 129.49 395.98"/>
      <path class="cls-7" d="m8.01,97.18c6.57-26.73,22.32-49.84,44.75-65.66C73.45,15.45,99.36,6.17,125.62,6.51c36.3.1,72.43,11.95,96.28,40.38,19.04,22.42,26.34,52.58,23.88,81.36-2.86,39.84-28.56,73.48-58.09,97.26-7.53,6.34-16.15,12.78-23.02,19.59-8.15,7.85-14.46,17.14-19.76,27.49-3.19,5.82-5.46,11.77-7.25,18.41-2.41,8.89-3.83,18.48-4.38,28.13-.54,9.74-.21,19.62,1.19,29.02,2.29,20.11-25.89,25.65-31.35,6.02-5.43-23.67-6.21-47.09-2.18-71.14,1.57-9.07,4.27-18.66,8.05-27.32,5.72-14.11,13.77-28.21,23.86-39.8,7.53-8.92,15.89-16.46,24-24.43,13.15-12.97,24.98-27.02,31.03-43.58,7.28-19.92,5.05-45.71-10.66-60.75-7.49-7.07-18.48-11.44-29.04-12.56-.76-.1-2.32-.29-3.08-.41-16.94-2.13-31.48-1.43-44.88,8.72-7.58,5.63-14.39,12.66-17.17,21.63-.88,2.64-1.57,5.59-2.07,8.84-3.14,20.44-22.26,34.46-42.7,31.32-22.2-3.24-36.63-26-30.27-47.48h0Z"/>
      <path class="cls-3" d="m183.36,93.87c49.96,114.73-83.11,91.09-58.68,269.27"/>
      <path class="cls-5" d="m182.9,93.84c50.11,94.26-57.39,108.1-49.02,220.28"/>
      <path class="cls-2" d="m83.05,104.5C87.71,22.85,153.1,15.87,163.44,11.22"/>
      <path class="cls-3" d="m118,73.53c47.3-8.64,101.86,1.63,123.7,77.04"/>
      <path class="cls-5" d="m116.64,74.89c42.57-12.85,105.37.19,129.14,53.35"/>
      <path class="cls-5" d="m83.05,104.5C87.96,20.69,132.64,12.15,139.78,7.16"/>
      <path class="cls-4" d="m8.01,97.18c6.57-26.73,22.32-49.84,44.75-65.66C73.45,15.45,99.36,6.17,125.62,6.51c36.3.1,72.43,11.95,96.28,40.38,19.04,22.42,26.34,52.58,23.88,81.36-2.86,39.84-28.56,73.48-58.09,97.26-7.53,6.34-16.15,12.78-23.02,19.59-8.15,7.85-14.46,17.14-19.76,27.49-3.19,5.82-5.46,11.77-7.25,18.41-2.41,8.89-3.83,18.48-4.38,28.13-.54,9.74-.21,19.62,1.19,29.02,2.29,20.11-25.89,25.65-31.35,6.02-5.43-23.67-6.21-47.09-2.18-71.14,1.57-9.07,4.27-18.66,8.05-27.32,5.72-14.11,13.77-28.21,23.86-39.8,7.53-8.92,15.89-16.46,24-24.43,13.15-12.97,24.98-27.02,31.03-43.58,7.28-19.92,5.05-45.71-10.66-60.75-7.49-7.07-18.48-11.44-29.04-12.56-.76-.1-2.32-.29-3.08-.41-16.94-2.13-31.48-1.43-44.88,8.72-7.58,5.63-14.39,12.66-17.17,21.63-.88,2.64-1.57,5.59-2.07,8.84-3.14,20.44-22.26,34.46-42.7,31.32-22.2-3.24-36.63-26-30.27-47.48h0Z"/>
    </g>
  </g>
</svg>